<svg width="90" height="91" viewBox="0 0 90 91" fill="none" xmlns="http://www.w3.org/2000/svg">
<path d="M45 6.125L11.25 17.375V51.125C11.25 69.7666 26.3584 84.875 45 84.875C63.6416 84.875 78.75 69.7666 78.75 51.125V17.375L45 6.125ZM72.4219 51.125C72.4219 66.2686 60.1436 78.5469 45 78.5469C29.8564 78.5469 17.5781 66.2686 17.5781 51.125V22.1211L45 12.4531L72.4219 22.1211V51.125Z" fill="#EDECEC"/>
<path d="M33.2578 42.2568C32.9646 41.9622 32.616 41.7285 32.2321 41.569C31.8483 41.4094 31.4367 41.3273 31.021 41.3273C30.6053 41.3273 30.1937 41.4094 29.8099 41.569C29.426 41.7285 29.0774 41.9622 28.7842 42.2568C28.4896 42.5501 28.2558 42.8987 28.0963 43.2825C27.9368 43.6664 27.8547 44.078 27.8547 44.4937C27.8547 44.9093 27.9368 45.3209 28.0963 45.7048C28.2558 46.0886 28.4896 46.4372 28.7842 46.7305L40.1572 58.1035L40.3418 58.2881C40.6192 58.566 40.9487 58.7865 41.3114 58.9369C41.6741 59.0874 42.0629 59.1648 42.4556 59.1648C42.8482 59.1648 43.237 59.0874 43.5998 58.9369C43.9625 58.7865 44.2919 58.566 44.5693 58.2881L64.2129 38.6445C64.4908 38.3671 64.7113 38.0377 64.8617 37.675C65.0122 37.3122 65.0896 36.9234 65.0896 36.5308C65.0896 36.1381 65.0122 35.7493 64.8617 35.3866C64.7113 35.0239 64.4908 34.6944 64.2129 34.417L63.9668 34.1709C63.6894 33.893 63.3599 33.6725 62.9972 33.5221C62.6345 33.3716 62.2457 33.2942 61.853 33.2942C61.4604 33.2942 61.0715 33.3716 60.7088 33.5221C60.3461 33.6725 60.0167 33.893 59.7393 34.1709L42.4512 51.4502L33.2578 42.2568Z" fill="#EDECEC"/>
</svg>
