<svg width="90" height="90" viewBox="0 0 90 90" fill="none" xmlns="http://www.w3.org/2000/svg">
<path d="M45 13.5C43.2098 13.5 41.4929 14.2112 40.227 15.477C38.9612 16.7429 38.25 18.4598 38.25 20.25C38.25 22.0402 38.9612 23.7571 40.227 25.023C41.4929 26.2888 43.2098 27 45 27C46.7902 27 48.5071 26.2888 49.773 25.023C51.0388 23.7571 51.75 22.0402 51.75 20.25C51.75 18.4598 51.0388 16.7429 49.773 15.477C48.5071 14.2112 46.7902 13.5 45 13.5ZM33.75 20.25C33.75 17.2663 34.9353 14.4048 37.045 12.295C39.1548 10.1853 42.0163 9 45 9C47.9837 9 50.8452 10.1853 52.955 12.295C55.0647 14.4048 56.25 17.2663 56.25 20.25C56.25 23.2337 55.0647 26.0952 52.955 28.205C50.8452 30.3147 47.9837 31.5 45 31.5C42.0163 31.5 39.1548 30.3147 37.045 28.205C34.9353 26.0952 33.75 23.2337 33.75 20.25ZM69.75 18C68.5565 18 67.4119 18.4741 66.568 19.318C65.7241 20.1619 65.25 21.3065 65.25 22.5C65.25 23.6935 65.7241 24.8381 66.568 25.682C67.4119 26.5259 68.5565 27 69.75 27C70.9435 27 72.0881 26.5259 72.932 25.682C73.7759 24.8381 74.25 23.6935 74.25 22.5C74.25 21.3065 73.7759 20.1619 72.932 19.318C72.0881 18.4741 70.9435 18 69.75 18ZM60.75 22.5C60.75 20.1131 61.6982 17.8239 63.386 16.136C65.0739 14.4482 67.3631 13.5 69.75 13.5C72.1369 13.5 74.4261 14.4482 76.114 16.136C77.8018 17.8239 78.75 20.1131 78.75 22.5C78.75 24.8869 77.8018 27.1761 76.114 28.864C74.4261 30.5518 72.1369 31.5 69.75 31.5C67.3631 31.5 65.0739 30.5518 63.386 28.864C61.6982 27.1761 60.75 24.8869 60.75 22.5ZM15.75 22.5C15.75 21.3065 16.2241 20.1619 17.068 19.318C17.9119 18.4741 19.0565 18 20.25 18C21.4435 18 22.5881 18.4741 23.432 19.318C24.2759 20.1619 24.75 21.3065 24.75 22.5C24.75 23.6935 24.2759 24.8381 23.432 25.682C22.5881 26.5259 21.4435 27 20.25 27C19.0565 27 17.9119 26.5259 17.068 25.682C16.2241 24.8381 15.75 23.6935 15.75 22.5ZM20.25 13.5C17.8631 13.5 15.5739 14.4482 13.886 16.136C12.1982 17.8239 11.25 20.1131 11.25 22.5C11.25 24.8869 12.1982 27.1761 13.886 28.864C15.5739 30.5518 17.8631 31.5 20.25 31.5C22.6369 31.5 24.9261 30.5518 26.614 28.864C28.3018 27.1761 29.25 24.8869 29.25 22.5C29.25 20.1131 28.3018 17.8239 26.614 16.136C24.9261 14.4482 22.6369 13.5 20.25 13.5ZM22.95 67.491C21.7315 67.552 20.5134 67.3646 19.3696 66.9403C18.2258 66.516 17.1802 65.8635 16.2964 65.0226C15.4125 64.1817 14.7088 63.1698 14.2281 62.0486C13.7474 60.9273 13.4997 59.72 13.5 58.5V41.625C13.5 41.3266 13.6185 41.0405 13.8295 40.8295C14.0405 40.6185 14.3266 40.5 14.625 40.5H22.563C22.743 38.8485 23.328 37.314 24.2055 36H14.625C11.52 36 9 38.52 9 41.625V58.5C8.99979 60.4265 9.41192 62.3308 10.2087 64.0849C11.0055 65.8389 12.1685 67.4021 13.6195 68.6694C15.0705 69.9367 16.776 70.8788 18.6213 71.4323C20.4666 71.9858 22.409 72.1379 24.318 71.8785C23.7123 70.4669 23.2539 68.9967 22.95 67.491ZM65.682 71.8785C67.591 72.1379 69.5334 71.9858 71.3787 71.4323C73.224 70.8788 74.9295 69.9367 76.3805 68.6694C77.8315 67.4021 78.9945 65.8389 79.7913 64.0849C80.5881 62.3308 81.0002 60.4265 81 58.5V41.625C81 38.52 78.48 36 75.375 36H65.7945C66.6765 37.314 67.257 38.8485 67.437 40.5H75.375C75.6734 40.5 75.9595 40.6185 76.1705 40.8295C76.3815 41.0405 76.5 41.3266 76.5 41.625V58.5C76.5003 59.72 76.2526 60.9273 75.7719 62.0486C75.2912 63.1698 74.5875 64.1817 73.7036 65.0226C72.8198 65.8635 71.7742 66.516 70.6304 66.9403C69.4866 67.3646 68.2685 67.552 67.05 67.491C66.746 68.9966 66.2876 70.4669 65.682 71.8785ZM32.625 36C29.52 36 27 38.52 27 41.625V63C27 67.7739 28.8964 72.3523 32.2721 75.7279C35.6477 79.1036 40.2261 81 45 81C49.7739 81 54.3523 79.1036 57.7279 75.7279C61.1036 72.3523 63 67.7739 63 63V41.625C63 38.52 60.48 36 57.375 36H32.625ZM31.5 41.625C31.5 41.3266 31.6185 41.0405 31.8295 40.8295C32.0405 40.6185 32.3266 40.5 32.625 40.5H57.375C57.6734 40.5 57.9595 40.6185 58.1705 40.8295C58.3815 41.0405 58.5 41.3266 58.5 41.625V63C58.5 66.5804 57.0777 70.0142 54.5459 72.5459C52.0142 75.0777 48.5804 76.5 45 76.5C41.4196 76.5 37.9858 75.0777 35.4541 72.5459C32.9223 70.0142 31.5 66.5804 31.5 63V41.625Z" fill="#EDECEC"/>
</svg>
