<svg width="90" height="90" viewBox="0 0 90 90" fill="none" xmlns="http://www.w3.org/2000/svg">
<path d="M84.375 73.125H78.75V40.6231C78.7501 39.8445 78.5886 39.0745 78.2758 38.3616C77.9629 37.6488 77.5055 37.0086 76.9324 36.4816L48.8074 9.94571C48.7937 9.93371 48.7807 9.92079 48.7687 9.90703C47.7333 8.96531 46.3839 8.44348 44.9842 8.44348C43.5845 8.44348 42.2351 8.96531 41.1996 9.90703L41.1609 9.94571L13.0676 36.4816C12.4945 37.0086 12.0371 37.6488 11.7242 38.3616C11.4114 39.0745 11.2499 39.8445 11.25 40.6231V73.125H5.625C4.87908 73.125 4.16371 73.4213 3.63626 73.9488C3.10882 74.4762 2.8125 75.1916 2.8125 75.9375C2.8125 76.6834 3.10882 77.3988 3.63626 77.9262C4.16371 78.4537 4.87908 78.75 5.625 78.75H84.375C85.1209 78.75 85.8363 78.4537 86.3637 77.9262C86.8912 77.3988 87.1875 76.6834 87.1875 75.9375C87.1875 75.1916 86.8912 74.4762 86.3637 73.9488C85.8363 73.4213 85.1209 73.125 84.375 73.125ZM16.875 40.6231L16.9137 40.5879L45 14.0625L73.0898 40.5809L73.1285 40.616V73.125H56.25V56.25C56.25 54.7582 55.6574 53.3274 54.6025 52.2725C53.5476 51.2176 52.1168 50.625 50.625 50.625H39.375C37.8832 50.625 36.4524 51.2176 35.3975 52.2725C34.3426 53.3274 33.75 54.7582 33.75 56.25V73.125H16.875V40.6231ZM50.625 73.125H39.375V56.25H50.625V73.125Z" fill="#EDECEC"/>
</svg>
