<svg width="90" height="90" viewBox="0 0 90 90" fill="none" xmlns="http://www.w3.org/2000/svg">
<path d="M86.4304 45.1239L76.77 36.4296L79.654 34.0731C80.9449 33.0125 82.0377 31.7317 82.8819 30.2899C86.072 24.7632 85.1437 17.9779 80.5714 13.4058C75.9992 8.83372 69.2139 7.90542 63.6875 11.0957C62.2459 11.9399 60.9652 13.0326 59.9047 14.3234L57.5478 17.2074L48.8535 7.54718L48.7517 7.43977C47.9599 6.64982 46.8871 6.20618 45.7686 6.20618C44.6501 6.20618 43.5773 6.64982 42.7855 7.43977L31.2542 18.9719L31.4634 23.1379L37.2832 27.8939C38.0604 28.5288 38.7196 29.2958 39.2307 30.1595C41.1303 33.4505 40.5613 37.5072 37.8146 40.2539C35.0678 43.0007 31.0118 43.5695 27.7202 41.6704C26.8558 41.159 26.0882 40.4993 25.4526 39.7216L20.6982 33.9033L16.5322 33.6943L4.00605 46.2205C3.61427 46.6122 3.3035 47.0773 3.09148 47.5891C2.87945 48.101 2.77032 48.6496 2.77032 49.2036C2.77032 49.7577 2.87945 50.3063 3.09148 50.8181C3.3035 51.33 3.61427 51.7951 4.00605 52.1868L34.8305 83.0116C36.1363 84.3175 37.6866 85.3533 39.3927 86.0601C41.0989 86.7668 42.9276 87.1305 44.7743 87.1305C46.621 87.1305 48.4497 86.7668 50.1558 86.0601C51.862 85.3533 53.4122 84.3175 54.7181 83.0116L86.5371 51.1919C87.327 50.4001 87.7705 49.3273 87.7705 48.2089C87.7705 47.0905 87.327 46.0177 86.5371 45.2259L86.4304 45.1239ZM50.7405 79.0342C49.957 79.8178 49.0268 80.4393 48.0031 80.8633C46.9794 81.2873 45.8822 81.5056 44.7742 81.5056C43.6662 81.5056 42.569 81.2873 41.5453 80.8633C40.5216 80.4393 39.5914 79.8178 38.8079 79.0342L8.97696 49.2031L18.3109 39.87L21.1076 43.293L21.1252 43.3139C22.1857 44.6048 23.4665 45.6976 24.9082 46.5418C30.4349 49.732 37.2201 48.8036 41.7923 44.2313C46.3646 39.6591 47.2927 32.8741 44.1026 27.3475C43.2585 25.9058 42.1656 24.6251 40.8748 23.5645L37.431 20.7503L45.7145 12.4668L55.5615 23.4076L59.8298 23.3058L64.2352 17.9146C64.8702 17.1375 65.637 16.4783 66.5007 15.9673C69.7916 14.0676 73.8483 14.6368 76.5951 17.3834C79.3418 20.1299 79.911 24.1861 78.0114 27.4778C77.5003 28.3415 76.8411 29.1085 76.0639 29.7434L70.6727 34.1487L70.5707 38.417L81.5119 48.2639L50.7405 79.0342Z" fill="#EDECEC"/>
</svg>
