<svg width="40" height="42" viewBox="0 0 40 42" fill="none" xmlns="http://www.w3.org/2000/svg">
<ellipse cx="20" cy="21.1159" rx="20" ry="20.4211" fill="#84221F"/>
<path d="M15.8682 13.7464C14.8282 13.4768 13.7382 13.5912 12.8842 14.0793C12.0142 14.5755 11.4042 15.4556 11.3742 16.6329C11.3282 18.4728 11.7452 20.9418 13.4012 23.8395C15.0362 26.7015 16.8412 28.4169 18.3392 29.4359C19.2852 30.0802 20.3302 30.0975 21.2232 29.6779C22.1032 29.2644 22.8172 28.4383 23.1882 27.4142C23.2805 27.1595 23.3176 26.8874 23.2969 26.6166C23.2762 26.3458 23.1981 26.0828 23.0682 25.8459L22.1142 24.108C21.8209 23.5732 21.349 23.1639 20.7845 22.9551C20.2201 22.7462 19.601 22.7517 19.0402 22.9706L18.3742 23.231C18.0512 23.3565 17.7542 23.2983 17.5862 23.1288C17.0212 22.5622 16.6172 21.7933 16.4342 20.9642C16.3762 20.7028 16.4942 20.3945 16.7762 20.177L17.3772 19.7134C17.8631 19.3391 18.1985 18.7966 18.3205 18.1877C18.4426 17.5788 18.3429 16.9454 18.0402 16.4062L17.0682 14.6756C16.9394 14.4464 16.7668 14.2461 16.5607 14.0865C16.3545 13.9268 16.119 13.8112 15.8682 13.7464ZM12.3742 16.6605C12.3942 15.8702 12.7862 15.3055 13.3722 14.9706C13.9742 14.6265 14.7962 14.5214 15.6222 14.7358C15.7432 14.767 15.8569 14.8228 15.9563 14.8998C16.0558 14.9768 16.1391 15.0735 16.2012 15.184L17.1722 16.9147C17.3538 17.2381 17.4137 17.618 17.3406 17.9832C17.2675 18.3484 17.0665 18.6739 16.7752 18.8986L16.1742 19.3622C15.6542 19.7624 15.2942 20.4486 15.4582 21.1888C15.6802 22.1915 16.1712 23.1421 16.8852 23.8579C17.4072 24.3807 18.1512 24.4113 18.7312 24.1846L19.3972 23.9242C19.7337 23.7927 20.1053 23.7893 20.4441 23.9145C20.7828 24.0398 21.0662 24.2853 21.2422 24.6063L22.1952 26.3452C22.3152 26.5637 22.3352 26.8251 22.2502 27.0599C21.9602 27.8614 21.4152 28.4628 20.8052 28.7497C20.2082 29.0305 19.5332 29.0224 18.8942 28.5864C17.5232 27.6531 15.8242 26.0531 14.2642 23.3249C12.7032 20.5885 12.3332 18.3074 12.3752 16.6605H12.3742ZM22.0762 13.6913C21.9603 13.6255 21.8235 13.6094 21.696 13.6465C21.5685 13.6837 21.4606 13.771 21.3962 13.8893C21.3317 14.0077 21.316 14.1473 21.3524 14.2775C21.3887 14.4077 21.4743 14.5179 21.5902 14.5837L21.9742 14.8022C23.1738 15.4826 24.1942 16.4495 24.9483 17.6202C25.7023 18.7909 26.1675 20.1306 26.3042 21.5248L26.3362 21.8464C26.34 21.9152 26.3574 21.9826 26.3873 22.0444C26.4173 22.1062 26.4592 22.1611 26.5105 22.2059C26.5618 22.2507 26.6215 22.2845 26.686 22.3051C26.7504 22.3257 26.8183 22.3327 26.8855 22.3258C26.9526 22.3189 27.0178 22.2982 27.0769 22.2649C27.136 22.2316 27.1879 22.1864 27.2295 22.1321C27.2711 22.0777 27.3014 22.0154 27.3187 21.9487C27.336 21.8821 27.3399 21.8125 27.3302 21.7443L27.2992 21.4237C27.1466 19.8651 26.6267 18.3675 25.7838 17.0588C24.9409 15.7501 23.8002 14.6693 22.4592 13.9087L22.0762 13.6913ZM20.9042 16.4277C20.9725 16.3117 21.0831 16.2281 21.2118 16.1953C21.3404 16.1626 21.4765 16.1834 21.5902 16.2531L21.7142 16.3286C22.5214 16.8228 23.2139 17.49 23.7437 18.2842C24.2736 19.0784 24.6283 19.9806 24.7832 20.9285L24.8272 21.2011C24.8398 21.268 24.8391 21.3367 24.8253 21.4033C24.8115 21.4699 24.7848 21.533 24.7467 21.5889C24.7086 21.6448 24.66 21.6923 24.6037 21.7288C24.5474 21.7652 24.4845 21.7897 24.4187 21.801C24.3529 21.8122 24.2856 21.8099 24.2208 21.7942C24.1559 21.7785 24.0948 21.7497 24.0409 21.7095C23.9871 21.6693 23.9417 21.6185 23.9074 21.5601C23.8731 21.5018 23.8506 21.437 23.8412 21.3696L23.7962 21.097C23.6653 20.2951 23.3655 19.5317 22.9175 18.8597C22.4695 18.1877 21.8839 17.623 21.2012 17.2047L21.0772 17.1281C21.0208 17.0937 20.9717 17.0482 20.9326 16.9944C20.8934 16.9405 20.8651 16.8793 20.8491 16.8143C20.8331 16.7492 20.8298 16.6816 20.8395 16.6153C20.8491 16.5489 20.8704 16.4852 20.9042 16.4277Z" fill="white"/>
</svg>
