<svg width="290" height="65" viewBox="0 0 290 65" fill="none" xmlns="http://www.w3.org/2000/svg">
<path d="M0.880859 17.1843H28.7572V47.2823H18.7948V24.9467H10.843V47.2823H0.880859V17.1843ZM33.902 47.2823V24.1069L41.9343 17.1843H61.7783V40.3597L53.7462 47.2823H33.902ZM42.3297 38.5084H53.3507V25.213H42.3297V38.5084ZM76.6232 31.4557V47.2823H66.6606V29.6984L76.6876 17.1843H94.5371V47.2823H84.5747V25.1945L81.8089 25.245L76.6232 31.4557ZM99.5769 17.1843H109.539V34.7447L119.223 25.213V17.1843H129.186V47.2823H119.223V33.2115L104.751 47.2823H99.5769V17.1843ZM134.226 47.2823V17.1843H156.275V25.479H144.24V47.2823H134.226ZM158.217 47.2823V24.1069L166.249 17.1843H186.093V40.3597L178.061 47.2823H158.217ZM166.645 38.5084H177.666V25.213H166.645V38.5084ZM191.133 17.1843H202.788V28.9478H207.46V17.1843H219.115V47.2823H207.46V35.0719H202.788V47.2823H191.133V17.1843Z" fill="#EDECEC"/>
<path fill-rule="evenodd" clip-rule="evenodd" d="M272.915 64.2334C273.476 64.2334 280.627 56.6957 281.468 55.7C282.45 54.8468 289.881 47.5935 289.881 47.0246V0.233398H243.611C243.05 0.233398 235.9 7.77106 235.058 8.76661C234.077 9.61999 226.646 16.8733 226.646 17.4422V64.2334H272.915Z" fill="#84221F"/>
<path fill-rule="evenodd" clip-rule="evenodd" d="M252.001 39.3151H238.038V35.7743H252.001V39.3151ZM259.67 39.4708H259.663L259.67 39.4618L259.67 39.4708ZM248.921 47.2825H251.827H259.89H286.343V39.2409H278.464V17.1843H263.741V24.996L270.536 25.2259V39.2409H259.816C259.841 39.1956 259.855 39.1603 259.855 39.1381V28.5153H238.038V25.3285H259.855V17.1843H238.387L230.881 24.4433L230.183 25.1513V47.2825H248.921Z" fill="#252526"/>
<path d="M8.63456 55.4887C8.63456 55.7425 8.57159 55.9358 8.44586 56.0687C8.31971 56.2014 8.20161 56.304 8.09114 56.3767C7.93001 56.5096 7.74618 56.6092 7.53988 56.6756C7.33358 56.7421 7.11965 56.7752 6.8983 56.7752H6.71723V55.4887H2.89761V59.4752H6.73207V58.0798H8.6193V59.421C8.6193 59.6745 8.57371 59.8919 8.48339 60.073C8.39286 60.2541 8.26967 60.4023 8.11341 60.5171C7.95736 60.6318 7.77396 60.7195 7.56257 60.7797C7.35139 60.8402 7.12983 60.8705 6.8983 60.8705H2.68622C2.46508 60.8705 2.25093 60.8374 2.04463 60.7709C1.83876 60.7045 1.65981 60.6077 1.50906 60.4808C1.35789 60.3541 1.23725 60.2059 1.14671 60.0367C1.05596 59.8679 1.0108 59.6745 1.0108 59.4571V55.4525C1.0108 55.2472 1.05596 55.0598 1.14671 54.8908C1.23725 54.7215 1.35789 54.5768 1.50906 54.4557C1.65981 54.3351 1.83876 54.2383 2.04463 54.166C2.25093 54.0935 2.47017 54.0572 2.7017 54.0572H6.8983C7.42178 54.0572 7.8418 54.1811 8.15857 54.4288C8.47576 54.6764 8.63456 55.0295 8.63456 55.4887ZM15.2468 60.8705V55.5067H11.4273V60.8705H9.54012V54.0572H17.1639L17.1488 60.8705H15.2468ZM25.6781 59.4932C25.6781 59.735 25.633 59.9401 25.5427 60.1094C25.4519 60.2786 25.3285 60.4206 25.1727 60.5352C25.0166 60.6498 24.833 60.7346 24.6218 60.7888C24.4102 60.8432 24.1836 60.8705 23.9421 60.8705H19.7455C19.514 60.8705 19.2973 60.8374 19.0963 60.7709C18.8951 60.7045 18.7165 60.6077 18.5605 60.4808C18.4046 60.3541 18.2836 60.2089 18.1979 60.0461C18.1127 59.8829 18.0696 59.6926 18.0696 59.4752V55.4525C18.0696 55.2472 18.1127 55.0568 18.1979 54.8817C18.2836 54.7065 18.4046 54.5585 18.5605 54.4376C18.7165 54.317 18.8951 54.2232 19.0963 54.1568C19.2973 54.0905 19.514 54.0572 19.7455 54.0572H23.9421C24.4554 54.0572 24.8731 54.1778 25.1952 54.4198C25.5174 54.6613 25.6781 55.0117 25.6781 55.4704V59.4932ZM23.7763 55.4887H19.9567V59.4752H23.7763V55.4887ZM34.1926 56.7571C34.1926 57.2283 33.9986 57.5847 33.6112 57.8262C33.2237 58.0678 32.708 58.1886 32.0639 58.1886H29.2259C29.2259 58.0437 29.2459 57.8837 29.2859 57.7084C29.3264 57.5333 29.392 57.3763 29.4823 57.2372C29.573 57.0984 29.6886 56.9836 29.8298 56.8931C29.9708 56.8025 30.1417 56.7571 30.3427 56.7571H32.2903V55.4887H28.4707V59.2758C28.4707 59.916 28.31 60.3509 27.9881 60.5804C27.8168 60.7012 27.6256 60.7797 27.414 60.8161C27.2028 60.8524 26.9865 60.8705 26.765 60.8705H26.5839V54.0572H32.4563C32.9697 54.0572 33.3873 54.1811 33.7094 54.4288C34.0315 54.6764 34.1926 55.0295 34.1926 55.4887V56.7571ZM42.7972 54.3652C42.7972 54.6551 42.7395 54.8757 42.6236 55.0267C42.5082 55.1777 42.3695 55.2865 42.2084 55.353C42.0475 55.4194 41.8789 55.4586 41.7027 55.4704C41.5267 55.4827 41.3781 55.4887 41.2575 55.4887H39.9291V59.4571C39.9291 59.9644 39.8333 60.3268 39.6421 60.5442C39.451 60.7615 39.0936 60.8705 38.5703 60.8705H38.0116V55.4887H35.0984V55.2893C35.0984 54.8183 35.2139 54.4953 35.4455 54.3198C35.677 54.1449 36.0039 54.0572 36.4269 54.0572H42.7972V54.3652ZM43.7032 60.8342V54.0572H43.8391C44.3626 54.0572 44.7851 54.166 45.107 54.3834C45.4291 54.6009 45.59 54.9512 45.59 55.4345V57.8804C45.6909 57.7839 45.8016 57.6662 45.9222 57.5273C46.0431 57.3881 46.1412 57.2795 46.2167 57.201C46.292 57.1225 46.3297 57.0774 46.3297 57.0651L48.3529 54.782C48.4937 54.6131 48.6497 54.483 48.8208 54.3925C48.9919 54.3019 49.1577 54.2292 49.3189 54.175C49.48 54.1208 49.636 54.0873 49.7868 54.0752C49.9382 54.0632 50.0637 54.0572 50.1644 54.0572H50.542V60.8342H48.6548V56.9926L47.9 57.8445L45.8769 60.1274C45.7261 60.2844 45.5675 60.4111 45.4015 60.5079C45.2353 60.6045 45.0695 60.6772 44.9032 60.7255C44.737 60.7737 44.5837 60.8038 44.4429 60.8161C44.3017 60.8279 44.1813 60.8342 44.0806 60.8342H43.7032ZM59.0563 59.1489C59.0563 59.4751 59.0035 59.753 58.8975 59.9825C58.7919 60.2122 58.6511 60.3903 58.4749 60.5171C58.2989 60.644 58.0975 60.7346 57.8711 60.7888C57.6448 60.8432 57.4055 60.8705 57.154 60.8705H51.4476V54.0572H57.1693C57.7729 54.0572 58.2385 54.1718 58.5657 54.4015C58.8926 54.631 59.0563 54.9209 59.0563 55.2712V55.4525C59.0563 55.6336 59.0086 55.824 58.9127 56.0233C58.8171 56.2225 58.6838 56.3767 58.5127 56.4853C58.2811 56.6302 57.9894 56.727 57.637 56.7752V56.7935C57.7981 56.8298 57.9542 56.875 58.1051 56.9292C58.2559 56.9836 58.392 57.0651 58.5127 57.1739C58.6838 57.2825 58.8171 57.4245 58.9127 57.5998C59.0086 57.7748 59.0563 57.9652 59.0563 58.1703V59.1489ZM53.3344 58.1886V59.4752H57.1693V58.1886H53.3344ZM57.1693 55.4887H53.3344V56.7571H57.1693V55.4887ZM65.6685 60.8705V58.1886H61.8489V60.8705H59.9621V55.4525C59.9621 55.2472 60.0072 55.0598 60.098 54.8908C60.1883 54.7215 60.3091 54.5768 60.4603 54.4557C60.6111 54.3351 60.7896 54.2383 60.9959 54.166C61.2022 54.0935 61.4214 54.0572 61.6525 54.0572H61.8489V56.7752H65.6833V54.0572H67.5705V60.8705H65.6685ZM76.085 59.4932C76.085 59.735 76.0394 59.9401 75.9491 60.1094C75.8584 60.2786 75.735 60.4206 75.5791 60.5352C75.4231 60.6498 75.2395 60.7346 75.0283 60.7888C74.8167 60.8432 74.59 60.8705 74.3485 60.8705H70.1519C69.9204 60.8705 69.7037 60.8374 69.5025 60.7709C69.3015 60.7045 69.123 60.6077 68.9669 60.4808C68.8109 60.3541 68.69 60.2089 68.6044 60.0461C68.5191 59.8829 68.4761 59.6926 68.4761 59.4752V55.4525C68.4761 55.2472 68.5191 55.0568 68.6044 54.8817C68.69 54.7065 68.8109 54.5585 68.9669 54.4376C69.123 54.317 69.3015 54.2232 69.5025 54.1568C69.7037 54.0905 69.9204 54.0572 70.1519 54.0572H74.3485C74.8618 54.0572 75.2795 54.1778 75.6016 54.4198C75.9239 54.6613 76.085 55.0117 76.085 55.4704V59.4932ZM74.1825 55.4887H70.3631V59.4752H74.1825V55.4887ZM77.0156 56.9774V55.377H81.0941V56.9774H77.0156ZM89.7167 54.3652C89.7167 54.6551 89.6588 54.8757 89.5428 55.0267C89.4277 55.1777 89.2888 55.2865 89.1277 55.353C88.967 55.4194 88.7984 55.4586 88.622 55.4704C88.446 55.4827 88.2976 55.4887 88.1768 55.4887H86.8484V59.4571C86.8484 59.9644 86.7526 60.3268 86.5618 60.5442C86.3703 60.7615 86.0131 60.8705 85.4896 60.8705H84.9311V55.4887H82.0177V55.2893C82.0177 54.8183 82.1334 54.4953 82.3648 54.3198C82.5963 54.1449 82.9234 54.0572 83.3464 54.0572H89.7167V54.3652ZM96.3291 60.8705V58.1886H92.5095V59.2577C92.5095 59.584 92.4667 59.8378 92.3812 60.0188C92.2958 60.1999 92.1673 60.3569 91.9964 60.4898C91.8353 60.6107 91.6442 60.7045 91.4227 60.7709C91.2013 60.8374 90.9698 60.8705 90.7283 60.8705H90.6227V55.5614C90.6227 55.2953 90.6678 55.0691 90.7586 54.8817C90.8489 54.6942 90.9723 54.5404 91.1282 54.4198C91.2842 54.2987 91.4653 54.2082 91.672 54.1477C91.8783 54.0873 92.0969 54.0572 92.3284 54.0572H98.2462V60.8705H96.3291ZM96.3291 55.4887H92.5095V56.7571H96.3291V55.4887ZM105.009 60.8705C104.778 60.8705 104.584 60.8464 104.428 60.7978C104.272 60.7496 104.136 60.6954 104.021 60.6348C103.905 60.5744 103.802 60.5021 103.711 60.4173C103.621 60.3328 103.53 60.2541 103.439 60.1819L101.039 57.7357V59.5657C101.039 59.8074 100.991 60.0126 100.895 60.1819C100.8 60.3509 100.674 60.4838 100.518 60.5804C100.362 60.6772 100.179 60.7496 99.9672 60.7978C99.7561 60.8464 99.5394 60.8705 99.3182 60.8705H99.152V54.0572H101.039V57.0651L103.5 54.0572H105.598L103.017 57.2462L106.459 60.8705H105.009ZM115.064 54.3652C115.064 54.6551 115.006 54.8757 114.89 55.0267C114.774 55.1777 114.636 55.2865 114.475 55.353C114.314 55.4194 114.145 55.4586 113.969 55.4704C113.793 55.4827 113.645 55.4887 113.524 55.4887H112.195V59.4571C112.195 59.9644 112.1 60.3268 111.908 60.5442C111.717 60.7615 111.36 60.8705 110.837 60.8705H110.278V55.4887H107.365V55.2893C107.365 54.8183 107.48 54.4953 107.712 54.3198C107.943 54.1449 108.27 54.0572 108.693 54.0572H115.064V54.3652ZM115.969 60.8342V54.0572H116.105C116.629 54.0572 117.051 54.166 117.373 54.3834C117.695 54.6009 117.857 54.9512 117.857 55.4345V57.8804C117.957 57.7839 118.068 57.6662 118.189 57.5273C118.309 57.3881 118.407 57.2795 118.483 57.201C118.558 57.1225 118.596 57.0774 118.596 57.0651L120.619 54.782C120.76 54.6131 120.916 54.483 121.087 54.3925C121.258 54.3019 121.424 54.2292 121.585 54.175C121.746 54.1208 121.902 54.0873 122.053 54.0752C122.204 54.0632 122.33 54.0572 122.431 54.0572H122.808V60.8342H120.921V56.9926L120.166 57.8445L118.143 60.1274C117.992 60.2844 117.834 60.4111 117.668 60.5079C117.502 60.6045 117.336 60.6772 117.17 60.7255C117.003 60.7737 116.85 60.8038 116.709 60.8161C116.568 60.8279 116.447 60.8342 116.347 60.8342H115.969ZM129.42 54.0572H131.322V60.8705H129.42V58.9315H125.842C125.188 58.9315 124.67 58.8108 124.287 58.5693C123.905 58.3275 123.714 57.9652 123.714 57.4819V54.0572H125.616V57.4819H129.42V54.0572ZM137.723 58.1886H134.115V59.4752H139.837C139.837 59.7167 139.791 59.9251 139.701 60.1003C139.61 60.2754 139.487 60.4206 139.331 60.5352C139.175 60.6498 138.994 60.7346 138.788 60.7888C138.581 60.8432 138.357 60.8705 138.116 60.8705H133.919C133.688 60.8705 133.469 60.8374 133.262 60.7709C133.056 60.7045 132.877 60.6077 132.726 60.4808C132.576 60.3541 132.454 60.2059 132.364 60.0367C132.273 59.8679 132.228 59.6745 132.228 59.4571V55.4704C132.228 55.2652 132.273 55.0749 132.364 54.8998C132.454 54.7247 132.576 54.5768 132.726 54.4557C132.877 54.3351 133.056 54.2383 133.262 54.166C133.469 54.0935 133.682 54.0572 133.904 54.0572H138.116C138.629 54.0572 139.044 54.1811 139.361 54.4288C139.678 54.6764 139.837 55.0295 139.837 55.4887H134.115V56.7571H137.723V58.1886ZM148.366 55.4887C148.366 55.7425 148.303 55.9358 148.177 56.0687C148.051 56.2014 147.933 56.304 147.823 56.3767C147.662 56.5096 147.478 56.6092 147.272 56.6756C147.065 56.7421 146.851 56.7752 146.63 56.7752H146.449V55.4887H142.63V59.4752H146.464V58.0798H148.351V59.421C148.351 59.6745 148.306 59.8919 148.215 60.073C148.125 60.2541 148.001 60.4023 147.845 60.5171C147.689 60.6318 147.506 60.7195 147.294 60.7797C147.083 60.8402 146.861 60.8705 146.63 60.8705H142.418C142.197 60.8705 141.983 60.8374 141.777 60.7709C141.57 60.7045 141.391 60.6077 141.241 60.4808C141.09 60.3541 140.969 60.2059 140.878 60.0367C140.788 59.8679 140.743 59.6745 140.743 59.4571V55.4525C140.743 55.2472 140.788 55.0598 140.878 54.8908C140.969 54.7215 141.09 54.5768 141.241 54.4557C141.391 54.3351 141.57 54.2383 141.777 54.166C141.983 54.0935 142.202 54.0572 142.433 54.0572H146.63C147.153 54.0572 147.574 54.1811 147.89 54.4288C148.207 54.6764 148.366 55.0295 148.366 55.4887ZM155.129 60.8705C154.898 60.8705 154.704 60.8464 154.548 60.7978C154.392 60.7496 154.256 60.6954 154.141 60.6348C154.025 60.5744 153.922 60.5021 153.831 60.4173C153.74 60.3328 153.65 60.2541 153.559 60.1819L151.159 57.7357V59.5657C151.159 59.8074 151.111 60.0126 151.015 60.1819C150.92 60.3509 150.794 60.4838 150.638 60.5804C150.482 60.6772 150.298 60.7496 150.087 60.7978C149.876 60.8464 149.659 60.8705 149.438 60.8705H149.272V54.0572H151.159V57.0651L153.62 54.0572H155.718L153.136 57.2462L156.579 60.8705H155.129ZM157.485 60.8342V54.0572H157.62C158.144 54.0572 158.566 54.166 158.888 54.3834C159.21 54.6009 159.371 54.9512 159.371 55.4345V57.8804C159.472 57.7839 159.583 57.6662 159.704 57.5273C159.824 57.3881 159.922 57.2795 159.998 57.201C160.073 57.1225 160.111 57.0774 160.111 57.0651L162.134 54.782C162.275 54.6131 162.431 54.483 162.602 54.3925C162.773 54.3019 162.939 54.2292 163.1 54.175C163.261 54.1208 163.417 54.0873 163.568 54.0752C163.719 54.0632 163.845 54.0572 163.946 54.0572H164.323V60.8342H162.436V56.9926L161.681 57.8445L159.658 60.1274C159.507 60.2844 159.349 60.4111 159.183 60.5079C159.016 60.6045 158.851 60.6772 158.685 60.7255C158.518 60.7737 158.365 60.8038 158.224 60.8161C158.083 60.8279 157.962 60.8342 157.862 60.8342H157.485ZM165.229 60.8342V54.0572H165.365C165.888 54.0572 166.311 54.166 166.633 54.3834C166.955 54.6009 167.116 54.9512 167.116 55.4345V57.8804C167.217 57.7839 167.327 57.6662 167.448 57.5273C167.569 57.3881 167.667 57.2795 167.743 57.201C167.818 57.1225 167.856 57.0774 167.856 57.0651L169.878 54.782C170.019 54.6131 170.175 54.483 170.347 54.3925C170.518 54.3019 170.684 54.2292 170.845 54.175C171.006 54.1208 171.162 54.0873 171.313 54.0752C171.464 54.0632 171.589 54.0572 171.69 54.0572H172.068V60.8342H170.18V56.9926L169.426 57.8445L167.403 60.1274C167.252 60.2844 167.094 60.4111 166.927 60.5079C166.761 60.6045 166.595 60.6772 166.429 60.7255C166.263 60.7737 166.109 60.8038 165.969 60.8161C165.828 60.8279 165.707 60.8342 165.606 60.8342H165.229ZM170.105 51.4841V52.6982L168.611 53.7673L167.131 52.6982V51.4841L168.611 52.4265L170.105 51.4841ZM183.571 59.4752H184.718V62.1751H183.934C183.581 62.1751 183.259 62.0181 182.967 61.7041C182.826 61.5348 182.721 61.3598 182.65 61.1783C182.61 61.0817 182.585 60.9793 182.575 60.8705H178.122C177.89 60.8705 177.668 60.8374 177.457 60.7709C177.246 60.7045 177.065 60.6077 176.914 60.4808C176.763 60.3541 176.642 60.2059 176.551 60.0367C176.461 59.8679 176.415 59.6745 176.415 59.4571V54.0572H176.612C177.115 54.0572 177.523 54.1449 177.834 54.3198C178.147 54.4953 178.303 54.8002 178.303 55.2351V59.4752H181.684V54.0572H183.571V59.4752ZM191.119 58.1886H187.511V59.4752H193.233C193.233 59.7167 193.188 59.9251 193.097 60.1003C193.006 60.2754 192.883 60.4206 192.727 60.5352C192.571 60.6498 192.39 60.7346 192.184 60.7888C191.978 60.8432 191.753 60.8705 191.512 60.8705H187.315C187.084 60.8705 186.865 60.8374 186.658 60.7709C186.452 60.7045 186.273 60.6077 186.122 60.4808C185.972 60.3541 185.851 60.2059 185.76 60.0367C185.67 59.8679 185.624 59.6745 185.624 59.4571V55.4704C185.624 55.2652 185.67 55.0749 185.76 54.8998C185.851 54.7247 185.972 54.5768 186.122 54.4557C186.273 54.3351 186.452 54.2383 186.658 54.166C186.865 54.0935 187.079 54.0572 187.3 54.0572H191.512C192.025 54.0572 192.44 54.1811 192.757 54.4288C193.074 54.6764 193.233 55.0295 193.233 55.4887H187.511V56.7571H191.119V58.1886ZM199.845 60.8705V58.1886H196.025V60.8705H194.138V55.4525C194.138 55.2472 194.184 55.0598 194.274 54.8908C194.365 54.7215 194.486 54.5768 194.637 54.4557C194.788 54.3351 194.966 54.2383 195.173 54.166C195.379 54.0935 195.598 54.0572 195.829 54.0572H196.025V56.7752H199.86V54.0572H201.747V60.8705H199.845ZM210.352 54.3652C210.352 54.6551 210.294 54.8757 210.178 55.0267C210.063 55.1777 209.924 55.2865 209.763 55.353C209.602 55.4194 209.434 55.4586 209.257 55.4704C209.081 55.4827 208.933 55.4887 208.812 55.4887H207.484V59.4571C207.484 59.9644 207.388 60.3268 207.197 60.5442C207.006 60.7615 206.648 60.8705 206.125 60.8705H205.566V55.4887H202.653V55.2893C202.653 54.8183 202.769 54.4953 203 54.3198C203.232 54.1449 203.559 54.0572 203.981 54.0572H210.352V54.3652ZM218.866 56.7571C218.866 57.2283 218.672 57.5847 218.285 57.8262C217.898 58.0678 217.382 58.1886 216.738 58.1886H213.9C213.9 58.0437 213.92 57.8837 213.96 57.7084C214 57.5333 214.065 57.3763 214.156 57.2372C214.247 57.0984 214.362 56.9836 214.503 56.8931C214.644 56.8025 214.816 56.7571 215.017 56.7571H216.964V55.4887H213.145V59.2758C213.145 59.916 212.984 60.3509 212.662 60.5804C212.49 60.7012 212.299 60.7797 212.088 60.8161C211.876 60.8524 211.66 60.8705 211.439 60.8705H211.258V54.0572H217.13C217.644 54.0572 218.061 54.1811 218.383 54.4288C218.705 54.6764 218.866 55.0295 218.866 55.4887V56.7571Z" fill="#EDECEC"/>
</svg>
