<svg width="50" height="50" viewBox="0 0 50 50" fill="none" xmlns="http://www.w3.org/2000/svg">
<path fill-rule="evenodd" clip-rule="evenodd" d="M0 0H50V50H0V0ZM14.25 14.25C12.5 16.0167 12.5 18.8417 12.5 24.5V25.5C12.5 31.15 12.5 33.975 14.25 35.75C16.0167 37.5 18.8417 37.5 24.5 37.5H25.5C31.15 37.5 33.975 37.5 35.75 35.75C37.5 33.9833 37.5 31.1583 37.5 25.5V24.5C37.5 18.85 37.5 16.025 35.75 14.25C33.9833 12.5 31.1583 12.5 25.5 12.5H24.5C18.85 12.5 16.025 12.5 14.25 14.25Z" fill="#D9D9D9"/>
<path d="M25.8 30.5083C20.1 30.5083 16.85 26.6083 16.7167 20.1083H19.5833C19.675 24.875 21.775 26.8916 23.4417 27.3083V20.1083H26.1333V24.2166C27.775 24.0416 29.5083 22.1666 30.0917 20.1H32.775C32.5562 21.1698 32.1192 22.183 31.4911 23.0762C30.8631 23.9695 30.0576 24.7237 29.125 25.2916C30.1658 25.8097 31.0849 26.5424 31.8218 27.4416C32.5587 28.3408 33.0966 29.386 33.4 30.5083H30.4417C29.8083 28.5333 28.225 27 26.1333 26.7916V30.5083H25.8Z" fill="#D9D9D9"/>
</svg>
